<?xml version="1.0" encoding="utf-8" standalone="no"?>
<!DOCTYPE svg PUBLIC "-//W3C//DTD SVG 1.1//EN"
  "http://www.w3.org/Graphics/SVG/1.1/DTD/svg11.dtd">
<svg xmlns:xlink="http://www.w3.org/1999/xlink" width="528pt" height="144pt" viewBox="0 0 528 144" xmlns="http://www.w3.org/2000/svg" version="1.1">
 <metadata>
  <rdf:RDF xmlns:dc="http://purl.org/dc/elements/1.1/" xmlns:cc="http://creativecommons.org/ns#" xmlns:rdf="http://www.w3.org/1999/02/22-rdf-syntax-ns#">
   <cc:Work>
    <dc:type rdf:resource="http://purl.org/dc/dcmitype/StillImage"/>
    <dc:date>2023-09-15T14:44:11.419422</dc:date>
    <dc:format>image/svg+xml</dc:format>
    <dc:creator>
     <cc:Agent>
      <dc:title>Matplotlib v3.7.2, https://matplotlib.org/</dc:title>
     </cc:Agent>
    </dc:creator>
   </cc:Work>
  </rdf:RDF>
 </metadata>
 <defs>
  <style type="text/css">*{stroke-linejoin: round; stroke-linecap: butt}</style>
 </defs>
 <g id="figure_1">
  <g id="patch_1">
   <path d="M 0 144 
L 528 144 
L 528 0 
L 0 0 
z
" style="fill: #ffffff"/>
  </g>
  <g id="axes_1">
   <g id="patch_2">
    <path d="M 66 136.8 
L 462 136.8 
L 462 28.8 
L 66 28.8 
z
" style="fill: #ffffff"/>
   </g>
   <g id="patch_3">
    <path d="M 66 136.8 
L 102 136.8 
L 102 100.8 
L 66 100.8 
z
" clip-path="url(#p7c29186991)" style="fill: #ffffff; stroke: #ffffff; stroke-linejoin: miter"/>
   </g>
   <g id="patch_4">
    <path d="M 102 136.8 
L 138 136.8 
L 138 100.8 
L 102 100.8 
z
" clip-path="url(#p7c29186991)" style="fill: #ffffff; stroke: #ffffff; stroke-linejoin: miter"/>
   </g>
   <g id="patch_5">
    <path d="M 138 136.8 
L 174 136.8 
L 174 100.8 
L 138 100.8 
z
" clip-path="url(#p7c29186991)" style="fill: #ffffff; stroke: #ffffff; stroke-linejoin: miter"/>
   </g>
   <g id="patch_6">
    <path d="M 174 136.8 
L 210 136.8 
L 210 100.8 
L 174 100.8 
z
" clip-path="url(#p7c29186991)" style="fill: #ffffff; stroke: #ffffff; stroke-linejoin: miter"/>
   </g>
   <g id="patch_7">
    <path d="M 210 136.8 
L 246 136.8 
L 246 100.8 
L 210 100.8 
z
" clip-path="url(#p7c29186991)" style="fill: #ffffff; stroke: #ffffff; stroke-linejoin: miter"/>
   </g>
   <g id="patch_8">
    <path d="M 246 136.8 
L 282 136.8 
L 282 100.8 
L 246 100.8 
z
" clip-path="url(#p7c29186991)" style="fill: #ffffff; stroke: #ffffff; stroke-linejoin: miter"/>
   </g>
   <g id="patch_9">
    <path d="M 282 136.8 
L 318 136.8 
L 318 100.8 
L 282 100.8 
z
" clip-path="url(#p7c29186991)" style="fill: #ffffff; stroke: #ffffff; stroke-linejoin: miter"/>
   </g>
   <g id="patch_10">
    <path d="M 318 136.8 
L 354 136.8 
L 354 100.8 
L 318 100.8 
z
" clip-path="url(#p7c29186991)" style="fill: #ffffff; stroke: #ffffff; stroke-linejoin: miter"/>
   </g>
   <g id="patch_11">
    <path d="M 354 136.8 
L 390 136.8 
L 390 100.8 
L 354 100.8 
z
" clip-path="url(#p7c29186991)" style="fill: #ffffff; stroke: #ffffff; stroke-linejoin: miter"/>
   </g>
   <g id="patch_12">
    <path d="M 390 136.8 
L 426 136.8 
L 426 100.8 
L 390 100.8 
z
" clip-path="url(#p7c29186991)" style="fill: #ffffff; stroke: #ffffff; stroke-linejoin: miter"/>
   </g>
   <g id="patch_13">
    <path d="M 426 136.8 
L 462 136.8 
L 462 100.8 
L 426 100.8 
z
" clip-path="url(#p7c29186991)" style="fill: #ffffff; stroke: #ffffff; stroke-linejoin: miter"/>
   </g>
   <g id="patch_14">
    <path d="M 66 100.8 
L 102 100.8 
L 102 64.8 
L 66 64.8 
z
" clip-path="url(#p7c29186991)" style="stroke: #000000; stroke-linejoin: miter"/>
   </g>
   <g id="patch_15">
    <path d="M 102 100.8 
L 138 100.8 
L 138 64.8 
L 102 64.8 
z
" clip-path="url(#p7c29186991)" style="stroke: #000000; stroke-linejoin: miter"/>
   </g>
   <g id="patch_16">
    <path d="M 138 100.8 
L 174 100.8 
L 174 64.8 
L 138 64.8 
z
" clip-path="url(#p7c29186991)" style="fill: #ffffff; stroke: #ffffff; stroke-linejoin: miter"/>
   </g>
   <g id="patch_17">
    <path d="M 174 100.8 
L 210 100.8 
L 210 64.8 
L 174 64.8 
z
" clip-path="url(#p7c29186991)" style="stroke: #000000; stroke-linejoin: miter"/>
   </g>
   <g id="patch_18">
    <path d="M 210 100.8 
L 246 100.8 
L 246 64.8 
L 210 64.8 
z
" clip-path="url(#p7c29186991)" style="stroke: #000000; stroke-linejoin: miter"/>
   </g>
   <g id="patch_19">
    <path d="M 246 100.8 
L 282 100.8 
L 282 64.8 
L 246 64.8 
z
" clip-path="url(#p7c29186991)" style="stroke: #000000; stroke-linejoin: miter"/>
   </g>
   <g id="patch_20">
    <path d="M 282 100.8 
L 318 100.8 
L 318 64.8 
L 282 64.8 
z
" clip-path="url(#p7c29186991)" style="stroke: #000000; stroke-linejoin: miter"/>
   </g>
   <g id="patch_21">
    <path d="M 318 100.8 
L 354 100.8 
L 354 64.8 
L 318 64.8 
z
" clip-path="url(#p7c29186991)" style="stroke: #000000; stroke-linejoin: miter"/>
   </g>
   <g id="patch_22">
    <path d="M 354 100.8 
L 390 100.8 
L 390 64.8 
L 354 64.8 
z
" clip-path="url(#p7c29186991)" style="stroke: #000000; stroke-linejoin: miter"/>
   </g>
   <g id="patch_23">
    <path d="M 390 100.8 
L 426 100.8 
L 426 64.8 
L 390 64.8 
z
" clip-path="url(#p7c29186991)" style="stroke: #000000; stroke-linejoin: miter"/>
   </g>
   <g id="patch_24">
    <path d="M 426 100.8 
L 462 100.8 
L 462 64.8 
L 426 64.8 
z
" clip-path="url(#p7c29186991)" style="stroke: #000000; stroke-linejoin: miter"/>
   </g>
   <g id="patch_25">
    <path d="M 66 64.8 
L 102 64.8 
L 102 28.8 
L 66 28.8 
z
" clip-path="url(#p7c29186991)" style="stroke: #000000; stroke-linejoin: miter"/>
   </g>
   <g id="patch_26">
    <path d="M 102 64.8 
L 138 64.8 
L 138 28.8 
L 102 28.8 
z
" clip-path="url(#p7c29186991)" style="stroke: #000000; stroke-linejoin: miter"/>
   </g>
   <g id="patch_27">
    <path d="M 138 64.8 
L 174 64.8 
L 174 28.8 
L 138 28.8 
z
" clip-path="url(#p7c29186991)" style="fill: #ffffff; stroke: #ffffff; stroke-linejoin: miter"/>
   </g>
   <g id="patch_28">
    <path d="M 174 64.8 
L 210 64.8 
L 210 28.8 
L 174 28.8 
z
" clip-path="url(#p7c29186991)" style="stroke: #000000; stroke-linejoin: miter"/>
   </g>
   <g id="patch_29">
    <path d="M 210 64.8 
L 246 64.8 
L 246 28.8 
L 210 28.8 
z
" clip-path="url(#p7c29186991)" style="stroke: #000000; stroke-linejoin: miter"/>
   </g>
   <g id="patch_30">
    <path d="M 246 64.8 
L 282 64.8 
L 282 28.8 
L 246 28.8 
z
" clip-path="url(#p7c29186991)" style="stroke: #000000; stroke-linejoin: miter"/>
   </g>
   <g id="patch_31">
    <path d="M 282 64.8 
L 318 64.8 
L 318 28.8 
L 282 28.8 
z
" clip-path="url(#p7c29186991)" style="stroke: #000000; stroke-linejoin: miter"/>
   </g>
   <g id="patch_32">
    <path d="M 318 64.8 
L 354 64.8 
L 354 28.8 
L 318 28.8 
z
" clip-path="url(#p7c29186991)" style="stroke: #000000; stroke-linejoin: miter"/>
   </g>
   <g id="patch_33">
    <path d="M 354 64.8 
L 390 64.8 
L 390 28.8 
L 354 28.8 
z
" clip-path="url(#p7c29186991)" style="stroke: #000000; stroke-linejoin: miter"/>
   </g>
   <g id="patch_34">
    <path d="M 390 64.8 
L 426 64.8 
L 426 28.8 
L 390 28.8 
z
" clip-path="url(#p7c29186991)" style="stroke: #000000; stroke-linejoin: miter"/>
   </g>
   <g id="patch_35">
    <path d="M 426 64.8 
L 462 64.8 
L 462 28.8 
L 426 28.8 
z
" clip-path="url(#p7c29186991)" style="stroke: #000000; stroke-linejoin: miter"/>
   </g>
   <g id="PathCollection_1">
    <defs>
     <path id="m4b3e051040" d="M 11.18034 0 
L -5.59017 -9.682458 
L -5.59017 9.682458 
z
" style="stroke: #00ffff"/>
    </defs>
    <g clip-path="url(#p7c29186991)">
     <use xlink:href="#m4b3e051040" x="84" y="118.8" style="fill: #00ffff; stroke: #00ffff"/>
    </g>
   </g>
   <g id="matplotlib.axis_1"/>
   <g id="line2d_1">
    <path d="M 66 136.8 
L 66 28.8 
" clip-path="url(#p7c29186991)" style="fill: none; stroke: #808080; stroke-linecap: square"/>
   </g>
   <g id="line2d_2">
    <path d="M 102 136.8 
L 102 28.8 
" clip-path="url(#p7c29186991)" style="fill: none; stroke: #808080; stroke-linecap: square"/>
   </g>
   <g id="line2d_3">
    <path d="M 138 136.8 
L 138 28.8 
" clip-path="url(#p7c29186991)" style="fill: none; stroke: #808080; stroke-linecap: square"/>
   </g>
   <g id="line2d_4">
    <path d="M 174 136.8 
L 174 28.8 
" clip-path="url(#p7c29186991)" style="fill: none; stroke: #808080; stroke-linecap: square"/>
   </g>
   <g id="line2d_5">
    <path d="M 210 136.8 
L 210 28.8 
" clip-path="url(#p7c29186991)" style="fill: none; stroke: #808080; stroke-linecap: square"/>
   </g>
   <g id="line2d_6">
    <path d="M 246 136.8 
L 246 28.8 
" clip-path="url(#p7c29186991)" style="fill: none; stroke: #808080; stroke-linecap: square"/>
   </g>
   <g id="line2d_7">
    <path d="M 282 136.8 
L 282 28.8 
" clip-path="url(#p7c29186991)" style="fill: none; stroke: #808080; stroke-linecap: square"/>
   </g>
   <g id="line2d_8">
    <path d="M 318 136.8 
L 318 28.8 
" clip-path="url(#p7c29186991)" style="fill: none; stroke: #808080; stroke-linecap: square"/>
   </g>
   <g id="line2d_9">
    <path d="M 354 136.8 
L 354 28.8 
" clip-path="url(#p7c29186991)" style="fill: none; stroke: #808080; stroke-linecap: square"/>
   </g>
   <g id="line2d_10">
    <path d="M 390 136.8 
L 390 28.8 
" clip-path="url(#p7c29186991)" style="fill: none; stroke: #808080; stroke-linecap: square"/>
   </g>
   <g id="line2d_11">
    <path d="M 426 136.8 
L 426 28.8 
" clip-path="url(#p7c29186991)" style="fill: none; stroke: #808080; stroke-linecap: square"/>
   </g>
   <g id="line2d_12">
    <path d="M 66 136.8 
L 462 136.8 
" clip-path="url(#p7c29186991)" style="fill: none; stroke: #808080; stroke-linecap: square"/>
   </g>
   <g id="line2d_13">
    <path d="M 66 100.8 
L 462 100.8 
" clip-path="url(#p7c29186991)" style="fill: none; stroke: #808080; stroke-linecap: square"/>
   </g>
   <g id="line2d_14">
    <path d="M 66 64.8 
L 462 64.8 
" clip-path="url(#p7c29186991)" style="fill: none; stroke: #808080; stroke-linecap: square"/>
   </g>
   <g id="patch_36">
    <path d="M 66 136.8 
L 66 28.8 
" style="fill: none; stroke: #000000; stroke-width: 0.8; stroke-linejoin: miter; stroke-linecap: square"/>
   </g>
   <g id="patch_37">
    <path d="M 462 136.8 
L 462 28.8 
" style="fill: none; stroke: #000000; stroke-width: 0.8; stroke-linejoin: miter; stroke-linecap: square"/>
   </g>
   <g id="patch_38">
    <path d="M 66 136.8 
L 462 136.8 
" style="fill: none; stroke: #000000; stroke-width: 0.8; stroke-linejoin: miter; stroke-linecap: square"/>
   </g>
   <g id="patch_39">
    <path d="M 66 28.8 
L 462 28.8 
" style="fill: none; stroke: #000000; stroke-width: 0.8; stroke-linejoin: miter; stroke-linecap: square"/>
   </g>
  </g>
 </g>
 <defs>
  <clipPath id="p7c29186991">
   <rect x="66" y="28.8" width="396" height="108"/>
  </clipPath>
 </defs>
</svg>
