<?xml version="1.0" encoding="utf-8" standalone="no"?>
<!DOCTYPE svg PUBLIC "-//W3C//DTD SVG 1.1//EN"
  "http://www.w3.org/Graphics/SVG/1.1/DTD/svg11.dtd">
<svg xmlns:xlink="http://www.w3.org/1999/xlink" width="432pt" height="432pt" viewBox="0 0 432 432" xmlns="http://www.w3.org/2000/svg" version="1.1">
 <metadata>
  <rdf:RDF xmlns:dc="http://purl.org/dc/elements/1.1/" xmlns:cc="http://creativecommons.org/ns#" xmlns:rdf="http://www.w3.org/1999/02/22-rdf-syntax-ns#">
   <cc:Work>
    <dc:type rdf:resource="http://purl.org/dc/dcmitype/StillImage"/>
    <dc:date>2024-09-11T18:46:26.955446</dc:date>
    <dc:format>image/svg+xml</dc:format>
    <dc:creator>
     <cc:Agent>
      <dc:title>Matplotlib v3.9.2, https://matplotlib.org/</dc:title>
     </cc:Agent>
    </dc:creator>
   </cc:Work>
  </rdf:RDF>
 </metadata>
 <defs>
  <style type="text/css">*{stroke-linejoin: round; stroke-linecap: butt}</style>
 </defs>
 <g id="figure_1">
  <g id="patch_1">
   <path d="M 0 432 
L 432 432 
L 432 0 
L 0 0 
z
" style="fill: #ffffff"/>
  </g>
  <g id="axes_1">
   <g id="patch_2">
    <path d="M 54 410.4 
L 378 410.4 
L 378 86.4 
L 54 86.4 
z
" style="fill: #ffffff"/>
   </g>
   <g id="patch_3">
    <path d="M 54 410.4 
L 81 410.4 
L 81 383.4 
L 54 383.4 
z
" clip-path="url(#pe3eafd39cb)" style="fill: #ffffff; stroke: #ffffff; stroke-linejoin: miter"/>
   </g>
   <g id="patch_4">
    <path d="M 81 410.4 
L 108 410.4 
L 108 383.4 
L 81 383.4 
z
" clip-path="url(#pe3eafd39cb)" style="fill: #ffffff; stroke: #ffffff; stroke-linejoin: miter"/>
   </g>
   <g id="patch_5">
    <path d="M 108 410.4 
L 135 410.4 
L 135 383.4 
L 108 383.4 
z
" clip-path="url(#pe3eafd39cb)" style="fill: #ffffff; stroke: #ffffff; stroke-linejoin: miter"/>
   </g>
   <g id="patch_6">
    <path d="M 135 410.4 
L 162 410.4 
L 162 383.4 
L 135 383.4 
z
" clip-path="url(#pe3eafd39cb)" style="fill: #ffffff; stroke: #ffffff; stroke-linejoin: miter"/>
   </g>
   <g id="patch_7">
    <path d="M 162 410.4 
L 189 410.4 
L 189 383.4 
L 162 383.4 
z
" clip-path="url(#pe3eafd39cb)" style="fill: #ffffff; stroke: #ffffff; stroke-linejoin: miter"/>
   </g>
   <g id="patch_8">
    <path d="M 189 410.4 
L 216 410.4 
L 216 383.4 
L 189 383.4 
z
" clip-path="url(#pe3eafd39cb)" style="fill: #ffffff; stroke: #ffffff; stroke-linejoin: miter"/>
   </g>
   <g id="patch_9">
    <path d="M 216 410.4 
L 243 410.4 
L 243 383.4 
L 216 383.4 
z
" clip-path="url(#pe3eafd39cb)" style="fill: #ffffff; stroke: #ffffff; stroke-linejoin: miter"/>
   </g>
   <g id="patch_10">
    <path d="M 243 410.4 
L 270 410.4 
L 270 383.4 
L 243 383.4 
z
" clip-path="url(#pe3eafd39cb)" style="fill: #ffffff; stroke: #ffffff; stroke-linejoin: miter"/>
   </g>
   <g id="patch_11">
    <path d="M 270 410.4 
L 297 410.4 
L 297 383.4 
L 270 383.4 
z
" clip-path="url(#pe3eafd39cb)" style="fill: #ffffff; stroke: #ffffff; stroke-linejoin: miter"/>
   </g>
   <g id="patch_12">
    <path d="M 297 410.4 
L 324 410.4 
L 324 383.4 
L 297 383.4 
z
" clip-path="url(#pe3eafd39cb)" style="fill: #ffffff; stroke: #ffffff; stroke-linejoin: miter"/>
   </g>
   <g id="patch_13">
    <path d="M 324 410.4 
L 351 410.4 
L 351 383.4 
L 324 383.4 
z
" clip-path="url(#pe3eafd39cb)" style="fill: #ffffff; stroke: #ffffff; stroke-linejoin: miter"/>
   </g>
   <g id="patch_14">
    <path d="M 351 410.4 
L 378 410.4 
L 378 383.4 
L 351 383.4 
z
" clip-path="url(#pe3eafd39cb)" style="fill: #ffffff; stroke: #ffffff; stroke-linejoin: miter"/>
   </g>
   <g id="patch_15">
    <path d="M 54 383.4 
L 81 383.4 
L 81 356.4 
L 54 356.4 
z
" clip-path="url(#pe3eafd39cb)" style="fill: #ffffff; stroke: #ffffff; stroke-linejoin: miter"/>
   </g>
   <g id="patch_16">
    <path d="M 81 383.4 
L 108 383.4 
L 108 356.4 
L 81 356.4 
z
" clip-path="url(#pe3eafd39cb)" style="fill: #ffffff; stroke: #ffffff; stroke-linejoin: miter"/>
   </g>
   <g id="patch_17">
    <path d="M 108 383.4 
L 135 383.4 
L 135 356.4 
L 108 356.4 
z
" clip-path="url(#pe3eafd39cb)" style="fill: #ffffff; stroke: #ffffff; stroke-linejoin: miter"/>
   </g>
   <g id="patch_18">
    <path d="M 135 383.4 
L 162 383.4 
L 162 356.4 
L 135 356.4 
z
" clip-path="url(#pe3eafd39cb)" style="fill: #ffffff; stroke: #ffffff; stroke-linejoin: miter"/>
   </g>
   <g id="patch_19">
    <path d="M 162 383.4 
L 189 383.4 
L 189 356.4 
L 162 356.4 
z
" clip-path="url(#pe3eafd39cb)" style="fill: #ffffff; stroke: #ffffff; stroke-linejoin: miter"/>
   </g>
   <g id="patch_20">
    <path d="M 189 383.4 
L 216 383.4 
L 216 356.4 
L 189 356.4 
z
" clip-path="url(#pe3eafd39cb)" style="fill: #ffffff; stroke: #ffffff; stroke-linejoin: miter"/>
   </g>
   <g id="patch_21">
    <path d="M 216 383.4 
L 243 383.4 
L 243 356.4 
L 216 356.4 
z
" clip-path="url(#pe3eafd39cb)" style="fill: #ffffff; stroke: #ffffff; stroke-linejoin: miter"/>
   </g>
   <g id="patch_22">
    <path d="M 243 383.4 
L 270 383.4 
L 270 356.4 
L 243 356.4 
z
" clip-path="url(#pe3eafd39cb)" style="fill: #ffffff; stroke: #ffffff; stroke-linejoin: miter"/>
   </g>
   <g id="patch_23">
    <path d="M 270 383.4 
L 297 383.4 
L 297 356.4 
L 270 356.4 
z
" clip-path="url(#pe3eafd39cb)" style="fill: #ffffff; stroke: #ffffff; stroke-linejoin: miter"/>
   </g>
   <g id="patch_24">
    <path d="M 297 383.4 
L 324 383.4 
L 324 356.4 
L 297 356.4 
z
" clip-path="url(#pe3eafd39cb)" style="fill: #ffffff; stroke: #ffffff; stroke-linejoin: miter"/>
   </g>
   <g id="patch_25">
    <path d="M 324 383.4 
L 351 383.4 
L 351 356.4 
L 324 356.4 
z
" clip-path="url(#pe3eafd39cb)" style="fill: #ffffff; stroke: #ffffff; stroke-linejoin: miter"/>
   </g>
   <g id="patch_26">
    <path d="M 351 383.4 
L 378 383.4 
L 378 356.4 
L 351 356.4 
z
" clip-path="url(#pe3eafd39cb)" style="fill: #ffffff; stroke: #ffffff; stroke-linejoin: miter"/>
   </g>
   <g id="patch_27">
    <path d="M 54 356.4 
L 81 356.4 
L 81 329.4 
L 54 329.4 
z
" clip-path="url(#pe3eafd39cb)" style="fill: #ffffff; stroke: #ffffff; stroke-linejoin: miter"/>
   </g>
   <g id="patch_28">
    <path d="M 81 356.4 
L 108 356.4 
L 108 329.4 
L 81 329.4 
z
" clip-path="url(#pe3eafd39cb)" style="fill: #ffffff; stroke: #ffffff; stroke-linejoin: miter"/>
   </g>
   <g id="patch_29">
    <path d="M 108 356.4 
L 135 356.4 
L 135 329.4 
L 108 329.4 
z
" clip-path="url(#pe3eafd39cb)" style="fill: #ffffff; stroke: #ffffff; stroke-linejoin: miter"/>
   </g>
   <g id="patch_30">
    <path d="M 135 356.4 
L 162 356.4 
L 162 329.4 
L 135 329.4 
z
" clip-path="url(#pe3eafd39cb)" style="fill: #ffffff; stroke: #ffffff; stroke-linejoin: miter"/>
   </g>
   <g id="patch_31">
    <path d="M 162 356.4 
L 189 356.4 
L 189 329.4 
L 162 329.4 
z
" clip-path="url(#pe3eafd39cb)" style="fill: #ffffff; stroke: #ffffff; stroke-linejoin: miter"/>
   </g>
   <g id="patch_32">
    <path d="M 189 356.4 
L 216 356.4 
L 216 329.4 
L 189 329.4 
z
" clip-path="url(#pe3eafd39cb)" style="fill: #ffffff; stroke: #ffffff; stroke-linejoin: miter"/>
   </g>
   <g id="patch_33">
    <path d="M 216 356.4 
L 243 356.4 
L 243 329.4 
L 216 329.4 
z
" clip-path="url(#pe3eafd39cb)" style="fill: #ffffff; stroke: #ffffff; stroke-linejoin: miter"/>
   </g>
   <g id="patch_34">
    <path d="M 243 356.4 
L 270 356.4 
L 270 329.4 
L 243 329.4 
z
" clip-path="url(#pe3eafd39cb)" style="fill: #ffffff; stroke: #ffffff; stroke-linejoin: miter"/>
   </g>
   <g id="patch_35">
    <path d="M 270 356.4 
L 297 356.4 
L 297 329.4 
L 270 329.4 
z
" clip-path="url(#pe3eafd39cb)" style="fill: #ffffff; stroke: #ffffff; stroke-linejoin: miter"/>
   </g>
   <g id="patch_36">
    <path d="M 297 356.4 
L 324 356.4 
L 324 329.4 
L 297 329.4 
z
" clip-path="url(#pe3eafd39cb)" style="fill: #ffffff; stroke: #ffffff; stroke-linejoin: miter"/>
   </g>
   <g id="patch_37">
    <path d="M 324 356.4 
L 351 356.4 
L 351 329.4 
L 324 329.4 
z
" clip-path="url(#pe3eafd39cb)" style="fill: #ffffff; stroke: #ffffff; stroke-linejoin: miter"/>
   </g>
   <g id="patch_38">
    <path d="M 351 356.4 
L 378 356.4 
L 378 329.4 
L 351 329.4 
z
" clip-path="url(#pe3eafd39cb)" style="fill: #ffffff; stroke: #ffffff; stroke-linejoin: miter"/>
   </g>
   <g id="patch_39">
    <path d="M 54 329.4 
L 81 329.4 
L 81 302.4 
L 54 302.4 
z
" clip-path="url(#pe3eafd39cb)" style="fill: #ffffff; stroke: #ffffff; stroke-linejoin: miter"/>
   </g>
   <g id="patch_40">
    <path d="M 81 329.4 
L 108 329.4 
L 108 302.4 
L 81 302.4 
z
" clip-path="url(#pe3eafd39cb)" style="fill: #ffffff; stroke: #ffffff; stroke-linejoin: miter"/>
   </g>
   <g id="patch_41">
    <path d="M 108 329.4 
L 135 329.4 
L 135 302.4 
L 108 302.4 
z
" clip-path="url(#pe3eafd39cb)" style="fill: #ffffff; stroke: #ffffff; stroke-linejoin: miter"/>
   </g>
   <g id="patch_42">
    <path d="M 135 329.4 
L 162 329.4 
L 162 302.4 
L 135 302.4 
z
" clip-path="url(#pe3eafd39cb)" style="fill: #ffffff; stroke: #ffffff; stroke-linejoin: miter"/>
   </g>
   <g id="patch_43">
    <path d="M 162 329.4 
L 189 329.4 
L 189 302.4 
L 162 302.4 
z
" clip-path="url(#pe3eafd39cb)" style="fill: #ffffff; stroke: #ffffff; stroke-linejoin: miter"/>
   </g>
   <g id="patch_44">
    <path d="M 189 329.4 
L 216 329.4 
L 216 302.4 
L 189 302.4 
z
" clip-path="url(#pe3eafd39cb)" style="fill: #ffffff; stroke: #ffffff; stroke-linejoin: miter"/>
   </g>
   <g id="patch_45">
    <path d="M 216 329.4 
L 243 329.4 
L 243 302.4 
L 216 302.4 
z
" clip-path="url(#pe3eafd39cb)" style="fill: #ffffff; stroke: #ffffff; stroke-linejoin: miter"/>
   </g>
   <g id="patch_46">
    <path d="M 243 329.4 
L 270 329.4 
L 270 302.4 
L 243 302.4 
z
" clip-path="url(#pe3eafd39cb)" style="fill: #ffffff; stroke: #ffffff; stroke-linejoin: miter"/>
   </g>
   <g id="patch_47">
    <path d="M 270 329.4 
L 297 329.4 
L 297 302.4 
L 270 302.4 
z
" clip-path="url(#pe3eafd39cb)" style="fill: #ffffff; stroke: #ffffff; stroke-linejoin: miter"/>
   </g>
   <g id="patch_48">
    <path d="M 297 329.4 
L 324 329.4 
L 324 302.4 
L 297 302.4 
z
" clip-path="url(#pe3eafd39cb)" style="fill: #ffffff; stroke: #ffffff; stroke-linejoin: miter"/>
   </g>
   <g id="patch_49">
    <path d="M 324 329.4 
L 351 329.4 
L 351 302.4 
L 324 302.4 
z
" clip-path="url(#pe3eafd39cb)" style="fill: #ffffff; stroke: #ffffff; stroke-linejoin: miter"/>
   </g>
   <g id="patch_50">
    <path d="M 351 329.4 
L 378 329.4 
L 378 302.4 
L 351 302.4 
z
" clip-path="url(#pe3eafd39cb)" style="fill: #ffffff; stroke: #ffffff; stroke-linejoin: miter"/>
   </g>
   <g id="patch_51">
    <path d="M 54 302.4 
L 81 302.4 
L 81 275.4 
L 54 275.4 
z
" clip-path="url(#pe3eafd39cb)" style="fill: #ffffff; stroke: #ffffff; stroke-linejoin: miter"/>
   </g>
   <g id="patch_52">
    <path d="M 81 302.4 
L 108 302.4 
L 108 275.4 
L 81 275.4 
z
" clip-path="url(#pe3eafd39cb)" style="fill: #ffffff; stroke: #ffffff; stroke-linejoin: miter"/>
   </g>
   <g id="patch_53">
    <path d="M 108 302.4 
L 135 302.4 
L 135 275.4 
L 108 275.4 
z
" clip-path="url(#pe3eafd39cb)" style="fill: #ffffff; stroke: #ffffff; stroke-linejoin: miter"/>
   </g>
   <g id="patch_54">
    <path d="M 135 302.4 
L 162 302.4 
L 162 275.4 
L 135 275.4 
z
" clip-path="url(#pe3eafd39cb)" style="fill: #ffffff; stroke: #ffffff; stroke-linejoin: miter"/>
   </g>
   <g id="patch_55">
    <path d="M 162 302.4 
L 189 302.4 
L 189 275.4 
L 162 275.4 
z
" clip-path="url(#pe3eafd39cb)" style="fill: #ffffff; stroke: #ffffff; stroke-linejoin: miter"/>
   </g>
   <g id="patch_56">
    <path d="M 189 302.4 
L 216 302.4 
L 216 275.4 
L 189 275.4 
z
" clip-path="url(#pe3eafd39cb)" style="fill: #ffffff; stroke: #ffffff; stroke-linejoin: miter"/>
   </g>
   <g id="patch_57">
    <path d="M 216 302.4 
L 243 302.4 
L 243 275.4 
L 216 275.4 
z
" clip-path="url(#pe3eafd39cb)" style="fill: #ffffff; stroke: #ffffff; stroke-linejoin: miter"/>
   </g>
   <g id="patch_58">
    <path d="M 243 302.4 
L 270 302.4 
L 270 275.4 
L 243 275.4 
z
" clip-path="url(#pe3eafd39cb)" style="fill: #ffffff; stroke: #ffffff; stroke-linejoin: miter"/>
   </g>
   <g id="patch_59">
    <path d="M 270 302.4 
L 297 302.4 
L 297 275.4 
L 270 275.4 
z
" clip-path="url(#pe3eafd39cb)" style="fill: #ffffff; stroke: #ffffff; stroke-linejoin: miter"/>
   </g>
   <g id="patch_60">
    <path d="M 297 302.4 
L 324 302.4 
L 324 275.4 
L 297 275.4 
z
" clip-path="url(#pe3eafd39cb)" style="fill: #ffffff; stroke: #ffffff; stroke-linejoin: miter"/>
   </g>
   <g id="patch_61">
    <path d="M 324 302.4 
L 351 302.4 
L 351 275.4 
L 324 275.4 
z
" clip-path="url(#pe3eafd39cb)" style="fill: #ffffff; stroke: #ffffff; stroke-linejoin: miter"/>
   </g>
   <g id="patch_62">
    <path d="M 351 302.4 
L 378 302.4 
L 378 275.4 
L 351 275.4 
z
" clip-path="url(#pe3eafd39cb)" style="fill: #ffffff; stroke: #ffffff; stroke-linejoin: miter"/>
   </g>
   <g id="patch_63">
    <path d="M 54 275.4 
L 81 275.4 
L 81 248.4 
L 54 248.4 
z
" clip-path="url(#pe3eafd39cb)" style="fill: #ffffff; stroke: #ffffff; stroke-linejoin: miter"/>
   </g>
   <g id="patch_64">
    <path d="M 81 275.4 
L 108 275.4 
L 108 248.4 
L 81 248.4 
z
" clip-path="url(#pe3eafd39cb)" style="fill: #ffffff; stroke: #ffffff; stroke-linejoin: miter"/>
   </g>
   <g id="patch_65">
    <path d="M 108 275.4 
L 135 275.4 
L 135 248.4 
L 108 248.4 
z
" clip-path="url(#pe3eafd39cb)" style="fill: #ffffff; stroke: #ffffff; stroke-linejoin: miter"/>
   </g>
   <g id="patch_66">
    <path d="M 135 275.4 
L 162 275.4 
L 162 248.4 
L 135 248.4 
z
" clip-path="url(#pe3eafd39cb)" style="fill: #ffffff; stroke: #ffffff; stroke-linejoin: miter"/>
   </g>
   <g id="patch_67">
    <path d="M 162 275.4 
L 189 275.4 
L 189 248.4 
L 162 248.4 
z
" clip-path="url(#pe3eafd39cb)" style="fill: #ffffff; stroke: #ffffff; stroke-linejoin: miter"/>
   </g>
   <g id="patch_68">
    <path d="M 189 275.4 
L 216 275.4 
L 216 248.4 
L 189 248.4 
z
" clip-path="url(#pe3eafd39cb)" style="fill: #ffffff; stroke: #ffffff; stroke-linejoin: miter"/>
   </g>
   <g id="patch_69">
    <path d="M 216 275.4 
L 243 275.4 
L 243 248.4 
L 216 248.4 
z
" clip-path="url(#pe3eafd39cb)" style="fill: #ffffff; stroke: #ffffff; stroke-linejoin: miter"/>
   </g>
   <g id="patch_70">
    <path d="M 243 275.4 
L 270 275.4 
L 270 248.4 
L 243 248.4 
z
" clip-path="url(#pe3eafd39cb)" style="fill: #ffffff; stroke: #ffffff; stroke-linejoin: miter"/>
   </g>
   <g id="patch_71">
    <path d="M 270 275.4 
L 297 275.4 
L 297 248.4 
L 270 248.4 
z
" clip-path="url(#pe3eafd39cb)" style="fill: #ffffff; stroke: #ffffff; stroke-linejoin: miter"/>
   </g>
   <g id="patch_72">
    <path d="M 297 275.4 
L 324 275.4 
L 324 248.4 
L 297 248.4 
z
" clip-path="url(#pe3eafd39cb)" style="fill: #ffffff; stroke: #ffffff; stroke-linejoin: miter"/>
   </g>
   <g id="patch_73">
    <path d="M 324 275.4 
L 351 275.4 
L 351 248.4 
L 324 248.4 
z
" clip-path="url(#pe3eafd39cb)" style="fill: #ffffff; stroke: #ffffff; stroke-linejoin: miter"/>
   </g>
   <g id="patch_74">
    <path d="M 351 275.4 
L 378 275.4 
L 378 248.4 
L 351 248.4 
z
" clip-path="url(#pe3eafd39cb)" style="fill: #ffffff; stroke: #ffffff; stroke-linejoin: miter"/>
   </g>
   <g id="patch_75">
    <path d="M 54 248.4 
L 81 248.4 
L 81 221.4 
L 54 221.4 
z
" clip-path="url(#pe3eafd39cb)" style="fill: #ffffff; stroke: #ffffff; stroke-linejoin: miter"/>
   </g>
   <g id="patch_76">
    <path d="M 81 248.4 
L 108 248.4 
L 108 221.4 
L 81 221.4 
z
" clip-path="url(#pe3eafd39cb)" style="fill: #ffffff; stroke: #ffffff; stroke-linejoin: miter"/>
   </g>
   <g id="patch_77">
    <path d="M 108 248.4 
L 135 248.4 
L 135 221.4 
L 108 221.4 
z
" clip-path="url(#pe3eafd39cb)" style="fill: #ffffff; stroke: #ffffff; stroke-linejoin: miter"/>
   </g>
   <g id="patch_78">
    <path d="M 135 248.4 
L 162 248.4 
L 162 221.4 
L 135 221.4 
z
" clip-path="url(#pe3eafd39cb)" style="fill: #ffffff; stroke: #ffffff; stroke-linejoin: miter"/>
   </g>
   <g id="patch_79">
    <path d="M 162 248.4 
L 189 248.4 
L 189 221.4 
L 162 221.4 
z
" clip-path="url(#pe3eafd39cb)" style="fill: #ffffff; stroke: #ffffff; stroke-linejoin: miter"/>
   </g>
   <g id="patch_80">
    <path d="M 189 248.4 
L 216 248.4 
L 216 221.4 
L 189 221.4 
z
" clip-path="url(#pe3eafd39cb)" style="fill: #ffffff; stroke: #ffffff; stroke-linejoin: miter"/>
   </g>
   <g id="patch_81">
    <path d="M 216 248.4 
L 243 248.4 
L 243 221.4 
L 216 221.4 
z
" clip-path="url(#pe3eafd39cb)" style="fill: #ffffff; stroke: #ffffff; stroke-linejoin: miter"/>
   </g>
   <g id="patch_82">
    <path d="M 243 248.4 
L 270 248.4 
L 270 221.4 
L 243 221.4 
z
" clip-path="url(#pe3eafd39cb)" style="fill: #ffffff; stroke: #ffffff; stroke-linejoin: miter"/>
   </g>
   <g id="patch_83">
    <path d="M 270 248.4 
L 297 248.4 
L 297 221.4 
L 270 221.4 
z
" clip-path="url(#pe3eafd39cb)" style="fill: #ffffff; stroke: #ffffff; stroke-linejoin: miter"/>
   </g>
   <g id="patch_84">
    <path d="M 297 248.4 
L 324 248.4 
L 324 221.4 
L 297 221.4 
z
" clip-path="url(#pe3eafd39cb)" style="fill: #ffffff; stroke: #ffffff; stroke-linejoin: miter"/>
   </g>
   <g id="patch_85">
    <path d="M 324 248.4 
L 351 248.4 
L 351 221.4 
L 324 221.4 
z
" clip-path="url(#pe3eafd39cb)" style="fill: #ffffff; stroke: #ffffff; stroke-linejoin: miter"/>
   </g>
   <g id="patch_86">
    <path d="M 351 248.4 
L 378 248.4 
L 378 221.4 
L 351 221.4 
z
" clip-path="url(#pe3eafd39cb)" style="fill: #ffffff; stroke: #ffffff; stroke-linejoin: miter"/>
   </g>
   <g id="patch_87">
    <path d="M 54 221.4 
L 81 221.4 
L 81 194.4 
L 54 194.4 
z
" clip-path="url(#pe3eafd39cb)" style="fill: #ffffff; stroke: #ffffff; stroke-linejoin: miter"/>
   </g>
   <g id="patch_88">
    <path d="M 81 221.4 
L 108 221.4 
L 108 194.4 
L 81 194.4 
z
" clip-path="url(#pe3eafd39cb)" style="fill: #ffffff; stroke: #ffffff; stroke-linejoin: miter"/>
   </g>
   <g id="patch_89">
    <path d="M 108 221.4 
L 135 221.4 
L 135 194.4 
L 108 194.4 
z
" clip-path="url(#pe3eafd39cb)" style="fill: #ffffff; stroke: #ffffff; stroke-linejoin: miter"/>
   </g>
   <g id="patch_90">
    <path d="M 135 221.4 
L 162 221.4 
L 162 194.4 
L 135 194.4 
z
" clip-path="url(#pe3eafd39cb)" style="fill: #ffffff; stroke: #ffffff; stroke-linejoin: miter"/>
   </g>
   <g id="patch_91">
    <path d="M 162 221.4 
L 189 221.4 
L 189 194.4 
L 162 194.4 
z
" clip-path="url(#pe3eafd39cb)" style="fill: #ffffff; stroke: #ffffff; stroke-linejoin: miter"/>
   </g>
   <g id="patch_92">
    <path d="M 189 221.4 
L 216 221.4 
L 216 194.4 
L 189 194.4 
z
" clip-path="url(#pe3eafd39cb)" style="fill: #ffffff; stroke: #ffffff; stroke-linejoin: miter"/>
   </g>
   <g id="patch_93">
    <path d="M 216 221.4 
L 243 221.4 
L 243 194.4 
L 216 194.4 
z
" clip-path="url(#pe3eafd39cb)" style="fill: #ffffff; stroke: #ffffff; stroke-linejoin: miter"/>
   </g>
   <g id="patch_94">
    <path d="M 243 221.4 
L 270 221.4 
L 270 194.4 
L 243 194.4 
z
" clip-path="url(#pe3eafd39cb)" style="fill: #ffffff; stroke: #ffffff; stroke-linejoin: miter"/>
   </g>
   <g id="patch_95">
    <path d="M 270 221.4 
L 297 221.4 
L 297 194.4 
L 270 194.4 
z
" clip-path="url(#pe3eafd39cb)" style="fill: #ffffff; stroke: #ffffff; stroke-linejoin: miter"/>
   </g>
   <g id="patch_96">
    <path d="M 297 221.4 
L 324 221.4 
L 324 194.4 
L 297 194.4 
z
" clip-path="url(#pe3eafd39cb)" style="fill: #ffffff; stroke: #ffffff; stroke-linejoin: miter"/>
   </g>
   <g id="patch_97">
    <path d="M 324 221.4 
L 351 221.4 
L 351 194.4 
L 324 194.4 
z
" clip-path="url(#pe3eafd39cb)" style="fill: #ffffff; stroke: #ffffff; stroke-linejoin: miter"/>
   </g>
   <g id="patch_98">
    <path d="M 351 221.4 
L 378 221.4 
L 378 194.4 
L 351 194.4 
z
" clip-path="url(#pe3eafd39cb)" style="fill: #ffffff; stroke: #ffffff; stroke-linejoin: miter"/>
   </g>
   <g id="patch_99">
    <path d="M 54 194.4 
L 81 194.4 
L 81 167.4 
L 54 167.4 
z
" clip-path="url(#pe3eafd39cb)" style="fill: #ffffff; stroke: #ffffff; stroke-linejoin: miter"/>
   </g>
   <g id="patch_100">
    <path d="M 81 194.4 
L 108 194.4 
L 108 167.4 
L 81 167.4 
z
" clip-path="url(#pe3eafd39cb)" style="fill: #ffffff; stroke: #ffffff; stroke-linejoin: miter"/>
   </g>
   <g id="patch_101">
    <path d="M 108 194.4 
L 135 194.4 
L 135 167.4 
L 108 167.4 
z
" clip-path="url(#pe3eafd39cb)" style="fill: #ffffff; stroke: #ffffff; stroke-linejoin: miter"/>
   </g>
   <g id="patch_102">
    <path d="M 135 194.4 
L 162 194.4 
L 162 167.4 
L 135 167.4 
z
" clip-path="url(#pe3eafd39cb)" style="fill: #ffffff; stroke: #ffffff; stroke-linejoin: miter"/>
   </g>
   <g id="patch_103">
    <path d="M 162 194.4 
L 189 194.4 
L 189 167.4 
L 162 167.4 
z
" clip-path="url(#pe3eafd39cb)" style="fill: #ffffff; stroke: #ffffff; stroke-linejoin: miter"/>
   </g>
   <g id="patch_104">
    <path d="M 189 194.4 
L 216 194.4 
L 216 167.4 
L 189 167.4 
z
" clip-path="url(#pe3eafd39cb)" style="fill: #ffffff; stroke: #ffffff; stroke-linejoin: miter"/>
   </g>
   <g id="patch_105">
    <path d="M 216 194.4 
L 243 194.4 
L 243 167.4 
L 216 167.4 
z
" clip-path="url(#pe3eafd39cb)" style="fill: #ffffff; stroke: #ffffff; stroke-linejoin: miter"/>
   </g>
   <g id="patch_106">
    <path d="M 243 194.4 
L 270 194.4 
L 270 167.4 
L 243 167.4 
z
" clip-path="url(#pe3eafd39cb)" style="fill: #ffffff; stroke: #ffffff; stroke-linejoin: miter"/>
   </g>
   <g id="patch_107">
    <path d="M 270 194.4 
L 297 194.4 
L 297 167.4 
L 270 167.4 
z
" clip-path="url(#pe3eafd39cb)" style="fill: #ffffff; stroke: #ffffff; stroke-linejoin: miter"/>
   </g>
   <g id="patch_108">
    <path d="M 297 194.4 
L 324 194.4 
L 324 167.4 
L 297 167.4 
z
" clip-path="url(#pe3eafd39cb)" style="fill: #ffffff; stroke: #ffffff; stroke-linejoin: miter"/>
   </g>
   <g id="patch_109">
    <path d="M 324 194.4 
L 351 194.4 
L 351 167.4 
L 324 167.4 
z
" clip-path="url(#pe3eafd39cb)" style="fill: #ffffff; stroke: #ffffff; stroke-linejoin: miter"/>
   </g>
   <g id="patch_110">
    <path d="M 351 194.4 
L 378 194.4 
L 378 167.4 
L 351 167.4 
z
" clip-path="url(#pe3eafd39cb)" style="fill: #ffffff; stroke: #ffffff; stroke-linejoin: miter"/>
   </g>
   <g id="patch_111">
    <path d="M 54 167.4 
L 81 167.4 
L 81 140.4 
L 54 140.4 
z
" clip-path="url(#pe3eafd39cb)" style="fill: #ffffff; stroke: #ffffff; stroke-linejoin: miter"/>
   </g>
   <g id="patch_112">
    <path d="M 81 167.4 
L 108 167.4 
L 108 140.4 
L 81 140.4 
z
" clip-path="url(#pe3eafd39cb)" style="fill: #ffffff; stroke: #ffffff; stroke-linejoin: miter"/>
   </g>
   <g id="patch_113">
    <path d="M 108 167.4 
L 135 167.4 
L 135 140.4 
L 108 140.4 
z
" clip-path="url(#pe3eafd39cb)" style="fill: #ffffff; stroke: #ffffff; stroke-linejoin: miter"/>
   </g>
   <g id="patch_114">
    <path d="M 135 167.4 
L 162 167.4 
L 162 140.4 
L 135 140.4 
z
" clip-path="url(#pe3eafd39cb)" style="fill: #ffffff; stroke: #ffffff; stroke-linejoin: miter"/>
   </g>
   <g id="patch_115">
    <path d="M 162 167.4 
L 189 167.4 
L 189 140.4 
L 162 140.4 
z
" clip-path="url(#pe3eafd39cb)" style="fill: #ffffff; stroke: #ffffff; stroke-linejoin: miter"/>
   </g>
   <g id="patch_116">
    <path d="M 189 167.4 
L 216 167.4 
L 216 140.4 
L 189 140.4 
z
" clip-path="url(#pe3eafd39cb)" style="fill: #ffffff; stroke: #ffffff; stroke-linejoin: miter"/>
   </g>
   <g id="patch_117">
    <path d="M 216 167.4 
L 243 167.4 
L 243 140.4 
L 216 140.4 
z
" clip-path="url(#pe3eafd39cb)" style="fill: #ffffff; stroke: #ffffff; stroke-linejoin: miter"/>
   </g>
   <g id="patch_118">
    <path d="M 243 167.4 
L 270 167.4 
L 270 140.4 
L 243 140.4 
z
" clip-path="url(#pe3eafd39cb)" style="fill: #ffffff; stroke: #ffffff; stroke-linejoin: miter"/>
   </g>
   <g id="patch_119">
    <path d="M 270 167.4 
L 297 167.4 
L 297 140.4 
L 270 140.4 
z
" clip-path="url(#pe3eafd39cb)" style="fill: #ffffff; stroke: #ffffff; stroke-linejoin: miter"/>
   </g>
   <g id="patch_120">
    <path d="M 297 167.4 
L 324 167.4 
L 324 140.4 
L 297 140.4 
z
" clip-path="url(#pe3eafd39cb)" style="fill: #ffffff; stroke: #ffffff; stroke-linejoin: miter"/>
   </g>
   <g id="patch_121">
    <path d="M 324 167.4 
L 351 167.4 
L 351 140.4 
L 324 140.4 
z
" clip-path="url(#pe3eafd39cb)" style="fill: #ffffff; stroke: #ffffff; stroke-linejoin: miter"/>
   </g>
   <g id="patch_122">
    <path d="M 351 167.4 
L 378 167.4 
L 378 140.4 
L 351 140.4 
z
" clip-path="url(#pe3eafd39cb)" style="fill: #ffffff; stroke: #ffffff; stroke-linejoin: miter"/>
   </g>
   <g id="patch_123">
    <path d="M 54 140.4 
L 81 140.4 
L 81 113.4 
L 54 113.4 
z
" clip-path="url(#pe3eafd39cb)" style="fill: #ffffff; stroke: #ffffff; stroke-linejoin: miter"/>
   </g>
   <g id="patch_124">
    <path d="M 81 140.4 
L 108 140.4 
L 108 113.4 
L 81 113.4 
z
" clip-path="url(#pe3eafd39cb)" style="fill: #ffffff; stroke: #ffffff; stroke-linejoin: miter"/>
   </g>
   <g id="patch_125">
    <path d="M 108 140.4 
L 135 140.4 
L 135 113.4 
L 108 113.4 
z
" clip-path="url(#pe3eafd39cb)" style="fill: #ffffff; stroke: #ffffff; stroke-linejoin: miter"/>
   </g>
   <g id="patch_126">
    <path d="M 135 140.4 
L 162 140.4 
L 162 113.4 
L 135 113.4 
z
" clip-path="url(#pe3eafd39cb)" style="fill: #ffffff; stroke: #ffffff; stroke-linejoin: miter"/>
   </g>
   <g id="patch_127">
    <path d="M 162 140.4 
L 189 140.4 
L 189 113.4 
L 162 113.4 
z
" clip-path="url(#pe3eafd39cb)" style="fill: #ffffff; stroke: #ffffff; stroke-linejoin: miter"/>
   </g>
   <g id="patch_128">
    <path d="M 189 140.4 
L 216 140.4 
L 216 113.4 
L 189 113.4 
z
" clip-path="url(#pe3eafd39cb)" style="fill: #ffffff; stroke: #ffffff; stroke-linejoin: miter"/>
   </g>
   <g id="patch_129">
    <path d="M 216 140.4 
L 243 140.4 
L 243 113.4 
L 216 113.4 
z
" clip-path="url(#pe3eafd39cb)" style="fill: #ffffff; stroke: #ffffff; stroke-linejoin: miter"/>
   </g>
   <g id="patch_130">
    <path d="M 243 140.4 
L 270 140.4 
L 270 113.4 
L 243 113.4 
z
" clip-path="url(#pe3eafd39cb)" style="fill: #ffffff; stroke: #ffffff; stroke-linejoin: miter"/>
   </g>
   <g id="patch_131">
    <path d="M 270 140.4 
L 297 140.4 
L 297 113.4 
L 270 113.4 
z
" clip-path="url(#pe3eafd39cb)" style="fill: #ffffff; stroke: #ffffff; stroke-linejoin: miter"/>
   </g>
   <g id="patch_132">
    <path d="M 297 140.4 
L 324 140.4 
L 324 113.4 
L 297 113.4 
z
" clip-path="url(#pe3eafd39cb)" style="fill: #ffffff; stroke: #ffffff; stroke-linejoin: miter"/>
   </g>
   <g id="patch_133">
    <path d="M 324 140.4 
L 351 140.4 
L 351 113.4 
L 324 113.4 
z
" clip-path="url(#pe3eafd39cb)" style="fill: #ffffff; stroke: #ffffff; stroke-linejoin: miter"/>
   </g>
   <g id="patch_134">
    <path d="M 351 140.4 
L 378 140.4 
L 378 113.4 
L 351 113.4 
z
" clip-path="url(#pe3eafd39cb)" style="fill: #ffffff; stroke: #ffffff; stroke-linejoin: miter"/>
   </g>
   <g id="patch_135">
    <path d="M 54 113.4 
L 81 113.4 
L 81 86.4 
L 54 86.4 
z
" clip-path="url(#pe3eafd39cb)" style="fill: #ffffff; stroke: #ffffff; stroke-linejoin: miter"/>
   </g>
   <g id="patch_136">
    <path d="M 81 113.4 
L 108 113.4 
L 108 86.4 
L 81 86.4 
z
" clip-path="url(#pe3eafd39cb)" style="fill: #ffffff; stroke: #ffffff; stroke-linejoin: miter"/>
   </g>
   <g id="patch_137">
    <path d="M 108 113.4 
L 135 113.4 
L 135 86.4 
L 108 86.4 
z
" clip-path="url(#pe3eafd39cb)" style="fill: #ffffff; stroke: #ffffff; stroke-linejoin: miter"/>
   </g>
   <g id="patch_138">
    <path d="M 135 113.4 
L 162 113.4 
L 162 86.4 
L 135 86.4 
z
" clip-path="url(#pe3eafd39cb)" style="fill: #ffffff; stroke: #ffffff; stroke-linejoin: miter"/>
   </g>
   <g id="patch_139">
    <path d="M 162 113.4 
L 189 113.4 
L 189 86.4 
L 162 86.4 
z
" clip-path="url(#pe3eafd39cb)" style="fill: #ffffff; stroke: #ffffff; stroke-linejoin: miter"/>
   </g>
   <g id="patch_140">
    <path d="M 189 113.4 
L 216 113.4 
L 216 86.4 
L 189 86.4 
z
" clip-path="url(#pe3eafd39cb)" style="fill: #ffffff; stroke: #ffffff; stroke-linejoin: miter"/>
   </g>
   <g id="patch_141">
    <path d="M 216 113.4 
L 243 113.4 
L 243 86.4 
L 216 86.4 
z
" clip-path="url(#pe3eafd39cb)" style="fill: #ffffff; stroke: #ffffff; stroke-linejoin: miter"/>
   </g>
   <g id="patch_142">
    <path d="M 243 113.4 
L 270 113.4 
L 270 86.4 
L 243 86.4 
z
" clip-path="url(#pe3eafd39cb)" style="fill: #ffffff; stroke: #ffffff; stroke-linejoin: miter"/>
   </g>
   <g id="patch_143">
    <path d="M 270 113.4 
L 297 113.4 
L 297 86.4 
L 270 86.4 
z
" clip-path="url(#pe3eafd39cb)" style="fill: #ffffff; stroke: #ffffff; stroke-linejoin: miter"/>
   </g>
   <g id="patch_144">
    <path d="M 297 113.4 
L 324 113.4 
L 324 86.4 
L 297 86.4 
z
" clip-path="url(#pe3eafd39cb)" style="fill: #ffffff; stroke: #ffffff; stroke-linejoin: miter"/>
   </g>
   <g id="patch_145">
    <path d="M 324 113.4 
L 351 113.4 
L 351 86.4 
L 324 86.4 
z
" clip-path="url(#pe3eafd39cb)" style="fill: #ffffff; stroke: #ffffff; stroke-linejoin: miter"/>
   </g>
   <g id="patch_146">
    <path d="M 351 113.4 
L 378 113.4 
L 378 86.4 
L 351 86.4 
z
" clip-path="url(#pe3eafd39cb)" style="fill: #ffffff; stroke: #ffffff; stroke-linejoin: miter"/>
   </g>
   <g id="PathCollection_1">
    <defs>
     <path id="mc8efa998a3" d="M 11.18034 0 
L -5.59017 -9.682458 
L -5.59017 9.682458 
z
" style="stroke: #00ffff"/>
    </defs>
    <g clip-path="url(#pe3eafd39cb)">
     <use xlink:href="#mc8efa998a3" x="67.5" y="396.9" style="fill: #00ffff; stroke: #00ffff"/>
    </g>
   </g>
   <g id="matplotlib.axis_1"/>
   <g id="line2d_1">
    <path d="M 54 410.4 
L 54 86.4 
" clip-path="url(#pe3eafd39cb)" style="fill: none; stroke: #808080; stroke-linecap: square"/>
   </g>
   <g id="line2d_2">
    <path d="M 81 410.4 
L 81 86.4 
" clip-path="url(#pe3eafd39cb)" style="fill: none; stroke: #808080; stroke-linecap: square"/>
   </g>
   <g id="line2d_3">
    <path d="M 108 410.4 
L 108 86.4 
" clip-path="url(#pe3eafd39cb)" style="fill: none; stroke: #808080; stroke-linecap: square"/>
   </g>
   <g id="line2d_4">
    <path d="M 135 410.4 
L 135 86.4 
" clip-path="url(#pe3eafd39cb)" style="fill: none; stroke: #808080; stroke-linecap: square"/>
   </g>
   <g id="line2d_5">
    <path d="M 162 410.4 
L 162 86.4 
" clip-path="url(#pe3eafd39cb)" style="fill: none; stroke: #808080; stroke-linecap: square"/>
   </g>
   <g id="line2d_6">
    <path d="M 189 410.4 
L 189 86.4 
" clip-path="url(#pe3eafd39cb)" style="fill: none; stroke: #808080; stroke-linecap: square"/>
   </g>
   <g id="line2d_7">
    <path d="M 216 410.4 
L 216 86.4 
" clip-path="url(#pe3eafd39cb)" style="fill: none; stroke: #808080; stroke-linecap: square"/>
   </g>
   <g id="line2d_8">
    <path d="M 243 410.4 
L 243 86.4 
" clip-path="url(#pe3eafd39cb)" style="fill: none; stroke: #808080; stroke-linecap: square"/>
   </g>
   <g id="line2d_9">
    <path d="M 270 410.4 
L 270 86.4 
" clip-path="url(#pe3eafd39cb)" style="fill: none; stroke: #808080; stroke-linecap: square"/>
   </g>
   <g id="line2d_10">
    <path d="M 297 410.4 
L 297 86.4 
" clip-path="url(#pe3eafd39cb)" style="fill: none; stroke: #808080; stroke-linecap: square"/>
   </g>
   <g id="line2d_11">
    <path d="M 324 410.4 
L 324 86.4 
" clip-path="url(#pe3eafd39cb)" style="fill: none; stroke: #808080; stroke-linecap: square"/>
   </g>
   <g id="line2d_12">
    <path d="M 351 410.4 
L 351 86.4 
" clip-path="url(#pe3eafd39cb)" style="fill: none; stroke: #808080; stroke-linecap: square"/>
   </g>
   <g id="line2d_13">
    <path d="M 54 410.4 
L 378 410.4 
" clip-path="url(#pe3eafd39cb)" style="fill: none; stroke: #808080; stroke-linecap: square"/>
   </g>
   <g id="line2d_14">
    <path d="M 54 383.4 
L 378 383.4 
" clip-path="url(#pe3eafd39cb)" style="fill: none; stroke: #808080; stroke-linecap: square"/>
   </g>
   <g id="line2d_15">
    <path d="M 54 356.4 
L 378 356.4 
" clip-path="url(#pe3eafd39cb)" style="fill: none; stroke: #808080; stroke-linecap: square"/>
   </g>
   <g id="line2d_16">
    <path d="M 54 329.4 
L 378 329.4 
" clip-path="url(#pe3eafd39cb)" style="fill: none; stroke: #808080; stroke-linecap: square"/>
   </g>
   <g id="line2d_17">
    <path d="M 54 302.4 
L 378 302.4 
" clip-path="url(#pe3eafd39cb)" style="fill: none; stroke: #808080; stroke-linecap: square"/>
   </g>
   <g id="line2d_18">
    <path d="M 54 275.4 
L 378 275.4 
" clip-path="url(#pe3eafd39cb)" style="fill: none; stroke: #808080; stroke-linecap: square"/>
   </g>
   <g id="line2d_19">
    <path d="M 54 248.4 
L 378 248.4 
" clip-path="url(#pe3eafd39cb)" style="fill: none; stroke: #808080; stroke-linecap: square"/>
   </g>
   <g id="line2d_20">
    <path d="M 54 221.4 
L 378 221.4 
" clip-path="url(#pe3eafd39cb)" style="fill: none; stroke: #808080; stroke-linecap: square"/>
   </g>
   <g id="line2d_21">
    <path d="M 54 194.4 
L 378 194.4 
" clip-path="url(#pe3eafd39cb)" style="fill: none; stroke: #808080; stroke-linecap: square"/>
   </g>
   <g id="line2d_22">
    <path d="M 54 167.4 
L 378 167.4 
" clip-path="url(#pe3eafd39cb)" style="fill: none; stroke: #808080; stroke-linecap: square"/>
   </g>
   <g id="line2d_23">
    <path d="M 54 140.4 
L 378 140.4 
" clip-path="url(#pe3eafd39cb)" style="fill: none; stroke: #808080; stroke-linecap: square"/>
   </g>
   <g id="line2d_24">
    <path d="M 54 113.4 
L 378 113.4 
" clip-path="url(#pe3eafd39cb)" style="fill: none; stroke: #808080; stroke-linecap: square"/>
   </g>
   <g id="patch_147">
    <path d="M 54 410.4 
L 54 86.4 
" style="fill: none; stroke: #000000; stroke-width: 0.8; stroke-linejoin: miter; stroke-linecap: square"/>
   </g>
   <g id="patch_148">
    <path d="M 378 410.4 
L 378 86.4 
" style="fill: none; stroke: #000000; stroke-width: 0.8; stroke-linejoin: miter; stroke-linecap: square"/>
   </g>
   <g id="patch_149">
    <path d="M 54 410.4 
L 378 410.4 
" style="fill: none; stroke: #000000; stroke-width: 0.8; stroke-linejoin: miter; stroke-linecap: square"/>
   </g>
   <g id="patch_150">
    <path d="M 54 86.4 
L 378 86.4 
" style="fill: none; stroke: #000000; stroke-width: 0.8; stroke-linejoin: miter; stroke-linecap: square"/>
   </g>
  </g>
 </g>
 <defs>
  <clipPath id="pe3eafd39cb">
   <rect x="54" y="86.4" width="324" height="324"/>
  </clipPath>
 </defs>
</svg>
