<?xml version="1.0" encoding="utf-8" standalone="no"?>
<!DOCTYPE svg PUBLIC "-//W3C//DTD SVG 1.1//EN"
  "http://www.w3.org/Graphics/SVG/1.1/DTD/svg11.dtd">
<svg xmlns:xlink="http://www.w3.org/1999/xlink" width="396pt" height="296.64pt" viewBox="0 0 396 296.64" xmlns="http://www.w3.org/2000/svg" version="1.1">
 <metadata>
  <rdf:RDF xmlns:dc="http://purl.org/dc/elements/1.1/" xmlns:cc="http://creativecommons.org/ns#" xmlns:rdf="http://www.w3.org/1999/02/22-rdf-syntax-ns#">
   <cc:Work>
    <dc:type rdf:resource="http://purl.org/dc/dcmitype/StillImage"/>
    <dc:date>2024-09-09T13:33:18.535233</dc:date>
    <dc:format>image/svg+xml</dc:format>
    <dc:creator>
     <cc:Agent>
      <dc:title>Matplotlib v3.9.2, https://matplotlib.org/</dc:title>
     </cc:Agent>
    </dc:creator>
   </cc:Work>
  </rdf:RDF>
 </metadata>
 <defs>
  <style type="text/css">*{stroke-linejoin: round; stroke-linecap: butt}</style>
 </defs>
 <g id="figure_1">
  <g id="patch_1">
   <path d="M 0 296.64 
L 396 296.64 
L 396 0 
L 0 0 
z
" style="fill: #ffffff"/>
  </g>
  <g id="axes_1">
   <g id="patch_2">
    <path d="M 49.68 281.808 
L 346.32 281.808 
L 346.32 59.328 
L 49.68 59.328 
z
" style="fill: #ffffff"/>
   </g>
   <g id="patch_3">
    <path d="M 49.68 281.808 
L 123.84 281.808 
L 123.84 207.648 
L 49.68 207.648 
z
" clip-path="url(#pa8b9647248)" style="fill: #ffffff; stroke: #ffffff; stroke-linejoin: miter"/>
   </g>
   <g id="patch_4">
    <path d="M 123.84 281.808 
L 198 281.808 
L 198 207.648 
L 123.84 207.648 
z
" clip-path="url(#pa8b9647248)" style="fill: #ffffff; stroke: #ffffff; stroke-linejoin: miter"/>
   </g>
   <g id="patch_5">
    <path d="M 198 281.808 
L 272.16 281.808 
L 272.16 207.648 
L 198 207.648 
z
" clip-path="url(#pa8b9647248)" style="fill: #ffffff; stroke: #ffffff; stroke-linejoin: miter"/>
   </g>
   <g id="patch_6">
    <path d="M 272.16 281.808 
L 346.32 281.808 
L 346.32 207.648 
L 272.16 207.648 
z
" clip-path="url(#pa8b9647248)" style="fill: #ffffff; stroke: #ffffff; stroke-linejoin: miter"/>
   </g>
   <g id="patch_7">
    <path d="M 49.68 207.648 
L 123.84 207.648 
L 123.84 133.488 
L 49.68 133.488 
z
" clip-path="url(#pa8b9647248)" style="fill: #ffffff; stroke: #ffffff; stroke-linejoin: miter"/>
   </g>
   <g id="patch_8">
    <path d="M 123.84 207.648 
L 198 207.648 
L 198 133.488 
L 123.84 133.488 
z
" clip-path="url(#pa8b9647248)" style="fill: #ffffff; stroke: #ffffff; stroke-linejoin: miter"/>
   </g>
   <g id="patch_9">
    <path d="M 198 207.648 
L 272.16 207.648 
L 272.16 133.488 
L 198 133.488 
z
" clip-path="url(#pa8b9647248)" style="fill: #ffffff; stroke: #ffffff; stroke-linejoin: miter"/>
   </g>
   <g id="patch_10">
    <path d="M 272.16 207.648 
L 346.32 207.648 
L 346.32 133.488 
L 272.16 133.488 
z
" clip-path="url(#pa8b9647248)" style="fill: #ffffff; stroke: #ffffff; stroke-linejoin: miter"/>
   </g>
   <g id="patch_11">
    <path d="M 49.68 133.488 
L 123.84 133.488 
L 123.84 59.328 
L 49.68 59.328 
z
" clip-path="url(#pa8b9647248)" style="fill: #ffffff; stroke: #ffffff; stroke-linejoin: miter"/>
   </g>
   <g id="patch_12">
    <path d="M 123.84 133.488 
L 198 133.488 
L 198 59.328 
L 123.84 59.328 
z
" clip-path="url(#pa8b9647248)" style="fill: #ffffff; stroke: #ffffff; stroke-linejoin: miter"/>
   </g>
   <g id="patch_13">
    <path d="M 198 133.488 
L 272.16 133.488 
L 272.16 59.328 
L 198 59.328 
z
" clip-path="url(#pa8b9647248)" style="fill: #ffffff; stroke: #ffffff; stroke-linejoin: miter"/>
   </g>
   <g id="patch_14">
    <path d="M 272.16 133.488 
L 346.32 133.488 
L 346.32 59.328 
L 272.16 59.328 
z
" clip-path="url(#pa8b9647248)" style="fill: #ffffff; stroke: #ffffff; stroke-linejoin: miter"/>
   </g>
   <g id="PathCollection_1">
    <defs>
     <path id="m3a456b3a31" d="M 11.18034 0 
L -5.59017 -9.682458 
L -5.59017 9.682458 
z
" style="stroke: #00ffff"/>
    </defs>
    <g clip-path="url(#pa8b9647248)">
     <use xlink:href="#m3a456b3a31" x="86.76" y="244.728" style="fill: #00ffff; stroke: #00ffff"/>
    </g>
   </g>
   <g id="matplotlib.axis_1"/>
   <g id="line2d_1">
    <path d="M 49.68 281.808 
L 49.68 59.328 
" clip-path="url(#pa8b9647248)" style="fill: none; stroke: #808080; stroke-linecap: square"/>
   </g>
   <g id="line2d_2">
    <path d="M 123.84 281.808 
L 123.84 59.328 
" clip-path="url(#pa8b9647248)" style="fill: none; stroke: #808080; stroke-linecap: square"/>
   </g>
   <g id="line2d_3">
    <path d="M 198 281.808 
L 198 59.328 
" clip-path="url(#pa8b9647248)" style="fill: none; stroke: #808080; stroke-linecap: square"/>
   </g>
   <g id="line2d_4">
    <path d="M 272.16 281.808 
L 272.16 59.328 
" clip-path="url(#pa8b9647248)" style="fill: none; stroke: #808080; stroke-linecap: square"/>
   </g>
   <g id="line2d_5">
    <path d="M 49.68 281.808 
L 346.32 281.808 
" clip-path="url(#pa8b9647248)" style="fill: none; stroke: #808080; stroke-linecap: square"/>
   </g>
   <g id="line2d_6">
    <path d="M 49.68 207.648 
L 346.32 207.648 
" clip-path="url(#pa8b9647248)" style="fill: none; stroke: #808080; stroke-linecap: square"/>
   </g>
   <g id="line2d_7">
    <path d="M 49.68 133.488 
L 346.32 133.488 
" clip-path="url(#pa8b9647248)" style="fill: none; stroke: #808080; stroke-linecap: square"/>
   </g>
   <g id="patch_15">
    <path d="M 49.68 281.808 
L 49.68 59.328 
" style="fill: none; stroke: #000000; stroke-width: 0.8; stroke-linejoin: miter; stroke-linecap: square"/>
   </g>
   <g id="patch_16">
    <path d="M 346.32 281.808 
L 346.32 59.328 
" style="fill: none; stroke: #000000; stroke-width: 0.8; stroke-linejoin: miter; stroke-linecap: square"/>
   </g>
   <g id="patch_17">
    <path d="M 49.68 281.808 
L 346.32 281.808 
" style="fill: none; stroke: #000000; stroke-width: 0.8; stroke-linejoin: miter; stroke-linecap: square"/>
   </g>
   <g id="patch_18">
    <path d="M 49.68 59.328 
L 346.32 59.328 
" style="fill: none; stroke: #000000; stroke-width: 0.8; stroke-linejoin: miter; stroke-linecap: square"/>
   </g>
  </g>
 </g>
 <defs>
  <clipPath id="pa8b9647248">
   <rect x="49.68" y="59.328" width="296.64" height="222.48"/>
  </clipPath>
 </defs>
</svg>
