<?xml version="1.0" encoding="utf-8" standalone="no"?>
<!DOCTYPE svg PUBLIC "-//W3C//DTD SVG 1.1//EN"
  "http://www.w3.org/Graphics/SVG/1.1/DTD/svg11.dtd">
<svg xmlns:xlink="http://www.w3.org/1999/xlink" width="396pt" height="396pt" viewBox="0 0 396 396" xmlns="http://www.w3.org/2000/svg" version="1.1">
 <metadata>
  <rdf:RDF xmlns:dc="http://purl.org/dc/elements/1.1/" xmlns:cc="http://creativecommons.org/ns#" xmlns:rdf="http://www.w3.org/1999/02/22-rdf-syntax-ns#">
   <cc:Work>
    <dc:type rdf:resource="http://purl.org/dc/dcmitype/StillImage"/>
    <dc:date>2022-12-14T13:58:32.929234</dc:date>
    <dc:format>image/svg+xml</dc:format>
    <dc:creator>
     <cc:Agent>
      <dc:title>Matplotlib v3.5.1, https://matplotlib.org/</dc:title>
     </cc:Agent>
    </dc:creator>
   </cc:Work>
  </rdf:RDF>
 </metadata>
 <defs>
  <style type="text/css">*{stroke-linejoin: round; stroke-linecap: butt}</style>
 </defs>
 <g id="figure_1">
  <g id="patch_1">
   <path d="M 0 396 
L 396 396 
L 396 0 
L 0 0 
z
" style="fill: #ffffff"/>
  </g>
  <g id="axes_1">
   <g id="patch_2">
    <path d="M 50.49 352.44 
L 355.41 352.44 
L 355.41 47.52 
L 50.49 47.52 
z
" style="fill: #ffffff"/>
   </g>
   <g id="patch_3">
    <path d="M 50.49 352.44 
L 152.13 352.44 
L 152.13 250.8 
L 50.49 250.8 
z
" clip-path="url(#p4df5a12afc)" style="fill: #ffffff; stroke: #ffffff; stroke-linejoin: miter"/>
   </g>
   <g id="patch_4">
    <path d="M 152.13 352.44 
L 253.77 352.44 
L 253.77 250.8 
L 152.13 250.8 
z
" clip-path="url(#p4df5a12afc)" style="fill: #ffffff; stroke: #ffffff; stroke-linejoin: miter"/>
   </g>
   <g id="patch_5">
    <path d="M 253.77 352.44 
L 355.41 352.44 
L 355.41 250.8 
L 253.77 250.8 
z
" clip-path="url(#p4df5a12afc)" style="fill: #ffffff; stroke: #ffffff; stroke-linejoin: miter"/>
   </g>
   <g id="patch_6">
    <path d="M 50.49 250.8 
L 152.13 250.8 
L 152.13 149.16 
L 50.49 149.16 
z
" clip-path="url(#p4df5a12afc)" style="fill: #ffffff; stroke: #ffffff; stroke-linejoin: miter"/>
   </g>
   <g id="patch_7">
    <path d="M 152.13 250.8 
L 253.77 250.8 
L 253.77 149.16 
L 152.13 149.16 
z
" clip-path="url(#p4df5a12afc)" style="fill: #ffffff; stroke: #ffffff; stroke-linejoin: miter"/>
   </g>
   <g id="patch_8">
    <path d="M 253.77 250.8 
L 355.41 250.8 
L 355.41 149.16 
L 253.77 149.16 
z
" clip-path="url(#p4df5a12afc)" style="fill: #ffffff; stroke: #ffffff; stroke-linejoin: miter"/>
   </g>
   <g id="patch_9">
    <path d="M 50.49 149.16 
L 152.13 149.16 
L 152.13 47.52 
L 50.49 47.52 
z
" clip-path="url(#p4df5a12afc)" style="fill: #ffffff; stroke: #ffffff; stroke-linejoin: miter"/>
   </g>
   <g id="patch_10">
    <path d="M 152.13 149.16 
L 253.77 149.16 
L 253.77 47.52 
L 152.13 47.52 
z
" clip-path="url(#p4df5a12afc)" style="fill: #ffffff; stroke: #ffffff; stroke-linejoin: miter"/>
   </g>
   <g id="patch_11">
    <path d="M 253.77 149.16 
L 355.41 149.16 
L 355.41 47.52 
L 253.77 47.52 
z
" clip-path="url(#p4df5a12afc)" style="fill: #ffffff; stroke: #ffffff; stroke-linejoin: miter"/>
   </g>
   <g id="PathCollection_1">
    <defs>
     <path id="m7864881196" d="M 11.18034 0 
L -5.59017 -9.682458 
L -5.59017 9.682458 
z
" style="stroke: #00ffff"/>
    </defs>
    <g clip-path="url(#p4df5a12afc)">
     <use xlink:href="#m7864881196" x="101.31" y="301.62" style="fill: #00ffff; stroke: #00ffff"/>
    </g>
   </g>
   <g id="line2d_1">
    <path d="M 50.49 352.44 
L 50.49 47.52 
" clip-path="url(#p4df5a12afc)" style="fill: none; stroke: #808080; stroke-linecap: square"/>
   </g>
   <g id="line2d_2">
    <path d="M 152.13 352.44 
L 152.13 47.52 
" clip-path="url(#p4df5a12afc)" style="fill: none; stroke: #808080; stroke-linecap: square"/>
   </g>
   <g id="line2d_3">
    <path d="M 253.77 352.44 
L 253.77 47.52 
" clip-path="url(#p4df5a12afc)" style="fill: none; stroke: #808080; stroke-linecap: square"/>
   </g>
   <g id="line2d_4">
    <path d="M 50.49 352.44 
L 355.41 352.44 
" clip-path="url(#p4df5a12afc)" style="fill: none; stroke: #808080; stroke-linecap: square"/>
   </g>
   <g id="line2d_5">
    <path d="M 50.49 250.8 
L 355.41 250.8 
" clip-path="url(#p4df5a12afc)" style="fill: none; stroke: #808080; stroke-linecap: square"/>
   </g>
   <g id="line2d_6">
    <path d="M 50.49 149.16 
L 355.41 149.16 
" clip-path="url(#p4df5a12afc)" style="fill: none; stroke: #808080; stroke-linecap: square"/>
   </g>
   <g id="patch_12">
    <path d="M 50.49 352.44 
L 50.49 47.52 
" style="fill: none; stroke: #000000; stroke-width: 0.8; stroke-linejoin: miter; stroke-linecap: square"/>
   </g>
   <g id="patch_13">
    <path d="M 355.41 352.44 
L 355.41 47.52 
" style="fill: none; stroke: #000000; stroke-width: 0.8; stroke-linejoin: miter; stroke-linecap: square"/>
   </g>
   <g id="patch_14">
    <path d="M 50.49 352.44 
L 355.41 352.44 
" style="fill: none; stroke: #000000; stroke-width: 0.8; stroke-linejoin: miter; stroke-linecap: square"/>
   </g>
   <g id="patch_15">
    <path d="M 50.49 47.52 
L 355.41 47.52 
" style="fill: none; stroke: #000000; stroke-width: 0.8; stroke-linejoin: miter; stroke-linecap: square"/>
   </g>
  </g>
 </g>
 <defs>
  <clipPath id="p4df5a12afc">
   <rect x="50.49" y="47.52" width="304.92" height="304.92"/>
  </clipPath>
 </defs>
</svg>
