<?xml version="1.0" encoding="utf-8" standalone="no"?>
<!DOCTYPE svg PUBLIC "-//W3C//DTD SVG 1.1//EN"
  "http://www.w3.org/Graphics/SVG/1.1/DTD/svg11.dtd">
<svg xmlns:xlink="http://www.w3.org/1999/xlink" width="396pt" height="297pt" viewBox="0 0 396 297" xmlns="http://www.w3.org/2000/svg" version="1.1">
 <metadata>
  <rdf:RDF xmlns:dc="http://purl.org/dc/elements/1.1/" xmlns:cc="http://creativecommons.org/ns#" xmlns:rdf="http://www.w3.org/1999/02/22-rdf-syntax-ns#">
   <cc:Work>
    <dc:type rdf:resource="http://purl.org/dc/dcmitype/StillImage"/>
    <dc:date>2022-12-14T13:58:33.112525</dc:date>
    <dc:format>image/svg+xml</dc:format>
    <dc:creator>
     <cc:Agent>
      <dc:title>Matplotlib v3.5.1, https://matplotlib.org/</dc:title>
     </cc:Agent>
    </dc:creator>
   </cc:Work>
  </rdf:RDF>
 </metadata>
 <defs>
  <style type="text/css">*{stroke-linejoin: round; stroke-linecap: butt}</style>
 </defs>
 <g id="figure_1">
  <g id="patch_1">
   <path d="M 0 297 
L 396 297 
L 396 0 
L 0 0 
z
" style="fill: #ffffff"/>
  </g>
  <g id="axes_1">
   <g id="patch_2">
    <path d="M 50.49 264.33 
L 355.41 264.33 
L 355.41 35.64 
L 50.49 35.64 
z
" style="fill: #ffffff"/>
   </g>
   <g id="patch_3">
    <path d="M 50.49 264.33 
L 126.72 264.33 
L 126.72 188.1 
L 50.49 188.1 
z
" clip-path="url(#p422f47439c)" style="fill: #ffffff; stroke: #ffffff; stroke-linejoin: miter"/>
   </g>
   <g id="patch_4">
    <path d="M 126.72 264.33 
L 202.95 264.33 
L 202.95 188.1 
L 126.72 188.1 
z
" clip-path="url(#p422f47439c)" style="fill: #ffffff; stroke: #ffffff; stroke-linejoin: miter"/>
   </g>
   <g id="patch_5">
    <path d="M 202.95 264.33 
L 279.18 264.33 
L 279.18 188.1 
L 202.95 188.1 
z
" clip-path="url(#p422f47439c)" style="fill: #ffffff; stroke: #ffffff; stroke-linejoin: miter"/>
   </g>
   <g id="patch_6">
    <path d="M 279.18 264.33 
L 355.41 264.33 
L 355.41 188.1 
L 279.18 188.1 
z
" clip-path="url(#p422f47439c)" style="fill: #ffffff; stroke: #ffffff; stroke-linejoin: miter"/>
   </g>
   <g id="patch_7">
    <path d="M 50.49 188.1 
L 126.72 188.1 
L 126.72 111.87 
L 50.49 111.87 
z
" clip-path="url(#p422f47439c)" style="fill: #ffffff; stroke: #ffffff; stroke-linejoin: miter"/>
   </g>
   <g id="patch_8">
    <path d="M 126.72 188.1 
L 202.95 188.1 
L 202.95 111.87 
L 126.72 111.87 
z
" clip-path="url(#p422f47439c)" style="fill: #ffffff; stroke: #ffffff; stroke-linejoin: miter"/>
   </g>
   <g id="patch_9">
    <path d="M 202.95 188.1 
L 279.18 188.1 
L 279.18 111.87 
L 202.95 111.87 
z
" clip-path="url(#p422f47439c)" style="fill: #ffffff; stroke: #ffffff; stroke-linejoin: miter"/>
   </g>
   <g id="patch_10">
    <path d="M 279.18 188.1 
L 355.41 188.1 
L 355.41 111.87 
L 279.18 111.87 
z
" clip-path="url(#p422f47439c)" style="fill: #ffffff; stroke: #ffffff; stroke-linejoin: miter"/>
   </g>
   <g id="patch_11">
    <path d="M 50.49 111.87 
L 126.72 111.87 
L 126.72 35.64 
L 50.49 35.64 
z
" clip-path="url(#p422f47439c)" style="fill: #ffffff; stroke: #ffffff; stroke-linejoin: miter"/>
   </g>
   <g id="patch_12">
    <path d="M 126.72 111.87 
L 202.95 111.87 
L 202.95 35.64 
L 126.72 35.64 
z
" clip-path="url(#p422f47439c)" style="fill: #ffffff; stroke: #ffffff; stroke-linejoin: miter"/>
   </g>
   <g id="patch_13">
    <path d="M 202.95 111.87 
L 279.18 111.87 
L 279.18 35.64 
L 202.95 35.64 
z
" clip-path="url(#p422f47439c)" style="fill: #ffffff; stroke: #ffffff; stroke-linejoin: miter"/>
   </g>
   <g id="patch_14">
    <path d="M 279.18 111.87 
L 355.41 111.87 
L 355.41 35.64 
L 279.18 35.64 
z
" clip-path="url(#p422f47439c)" style="fill: #ffffff; stroke: #ffffff; stroke-linejoin: miter"/>
   </g>
   <g id="PathCollection_1">
    <defs>
     <path id="m7a4676f051" d="M 11.18034 0 
L -5.59017 -9.682458 
L -5.59017 9.682458 
z
" style="stroke: #00ffff"/>
    </defs>
    <g clip-path="url(#p422f47439c)">
     <use xlink:href="#m7a4676f051" x="88.605" y="226.215" style="fill: #00ffff; stroke: #00ffff"/>
    </g>
   </g>
   <g id="line2d_1">
    <path d="M 50.49 264.33 
L 50.49 35.64 
" clip-path="url(#p422f47439c)" style="fill: none; stroke: #808080; stroke-linecap: square"/>
   </g>
   <g id="line2d_2">
    <path d="M 126.72 264.33 
L 126.72 35.64 
" clip-path="url(#p422f47439c)" style="fill: none; stroke: #808080; stroke-linecap: square"/>
   </g>
   <g id="line2d_3">
    <path d="M 202.95 264.33 
L 202.95 35.64 
" clip-path="url(#p422f47439c)" style="fill: none; stroke: #808080; stroke-linecap: square"/>
   </g>
   <g id="line2d_4">
    <path d="M 279.18 264.33 
L 279.18 35.64 
" clip-path="url(#p422f47439c)" style="fill: none; stroke: #808080; stroke-linecap: square"/>
   </g>
   <g id="line2d_5">
    <path d="M 50.49 264.33 
L 355.41 264.33 
" clip-path="url(#p422f47439c)" style="fill: none; stroke: #808080; stroke-linecap: square"/>
   </g>
   <g id="line2d_6">
    <path d="M 50.49 188.1 
L 355.41 188.1 
" clip-path="url(#p422f47439c)" style="fill: none; stroke: #808080; stroke-linecap: square"/>
   </g>
   <g id="line2d_7">
    <path d="M 50.49 111.87 
L 355.41 111.87 
" clip-path="url(#p422f47439c)" style="fill: none; stroke: #808080; stroke-linecap: square"/>
   </g>
   <g id="patch_15">
    <path d="M 50.49 264.33 
L 50.49 35.64 
" style="fill: none; stroke: #000000; stroke-width: 0.8; stroke-linejoin: miter; stroke-linecap: square"/>
   </g>
   <g id="patch_16">
    <path d="M 355.41 264.33 
L 355.41 35.64 
" style="fill: none; stroke: #000000; stroke-width: 0.8; stroke-linejoin: miter; stroke-linecap: square"/>
   </g>
   <g id="patch_17">
    <path d="M 50.49 264.33 
L 355.41 264.33 
" style="fill: none; stroke: #000000; stroke-width: 0.8; stroke-linejoin: miter; stroke-linecap: square"/>
   </g>
   <g id="patch_18">
    <path d="M 50.49 35.64 
L 355.41 35.64 
" style="fill: none; stroke: #000000; stroke-width: 0.8; stroke-linejoin: miter; stroke-linecap: square"/>
   </g>
  </g>
 </g>
 <defs>
  <clipPath id="p422f47439c">
   <rect x="50.49" y="35.64" width="304.92" height="228.69"/>
  </clipPath>
 </defs>
</svg>
